<svg xmlns="http://www.w3.org/2000/svg" width="556" height="135" viewBox="0 0 556 135" fill="none"><path d="M517.23 8.49707H479.268V44.6055H517.23V8.49707Z" fill="#DB813B"></path><path d="M517.23 8.49707H536.096C546.637 8.49707 555.192 16.6347 555.192 26.6605V44.6055H517.23V8.49707Z" fill="#D76F32"></path><path d="M555.192 44.6057H517.23V80.7142H555.192V44.6057Z" fill="#E0945E"></path><path d="M14.7915 8.92349V11.4915H8.11756V28.9751H4.96577V11.4915H2.05847V8.88118H4.96577V7.13037C4.96577 4.92511 5.5176 3.25179 6.62499 2.10688C7.72867 0.965503 9.30643 0.394775 11.3545 0.394775C12.0916 0.394775 12.7249 0.433553 13.2583 0.511055C13.7916 0.588556 14.3138 0.718936 14.8323 0.902121V3.50894C14.2582 3.35394 13.7397 3.23062 13.2767 3.13903C12.8137 3.04744 12.3064 3.00168 11.762 3.00168C9.30646 3.00168 8.07687 4.42838 8.07687 7.28535V8.91996H14.7915V8.92349Z" fill="#303030"></path><path d="M35.0356 22.9582C34.4763 24.244 33.7059 25.3642 32.7208 26.326C31.7393 27.2877 30.5653 28.0451 29.2023 28.6052C27.8357 29.1618 26.3617 29.4436 24.7802 29.4436C23.1988 29.4436 21.7359 29.1653 20.3989 28.6052C19.0619 28.0486 17.9026 27.2947 16.9174 26.3471C15.9359 25.3995 15.1693 24.2898 14.6249 23.0181C14.0805 21.7464 13.8064 20.3972 13.8064 18.9669C13.8064 17.5367 14.0805 16.1839 14.6249 14.8981C15.1693 13.6123 15.9359 12.492 16.9174 11.5303C17.8989 10.5721 19.0655 9.81118 20.4173 9.25106C21.7692 8.69446 23.2469 8.4126 24.858 8.4126C26.4691 8.4126 27.9061 8.69094 29.2579 9.25106C30.6098 9.80766 31.7764 10.5615 32.7579 11.5091C33.7393 12.4568 34.5022 13.5664 35.0504 14.8381C35.5948 16.1099 35.8689 17.4591 35.8689 18.8893C35.8689 20.3196 35.5875 21.6723 35.0282 22.9582H35.0356ZM32.0468 15.8774C31.6505 14.9192 31.0987 14.0843 30.3876 13.3727C29.6765 12.6611 28.8469 12.0974 27.8913 11.6853C26.9358 11.2696 25.8987 11.0617 24.7802 11.0617C23.6617 11.0617 22.584 11.2625 21.6284 11.6641C20.6729 12.0657 19.8619 12.6224 19.1915 13.334C18.5211 14.0456 17.9989 14.8734 17.6174 15.821C17.236 16.7651 17.0434 17.7832 17.0434 18.8683C17.0434 19.9533 17.2396 20.9784 17.6359 21.9366C18.0322 22.8948 18.5767 23.7227 19.273 24.4237C19.9692 25.1212 20.7951 25.6778 21.7507 26.0935C22.7062 26.5092 23.7432 26.7135 24.8617 26.7135C25.9802 26.7135 27.0579 26.5126 28.0135 26.111C28.969 25.7094 29.7876 25.1599 30.469 24.4589C31.1505 23.7614 31.6838 22.937 32.0653 21.9929C32.4468 21.0488 32.6393 20.0308 32.6393 18.9458C32.6393 17.8607 32.4394 16.8356 32.0468 15.8774Z" fill="#303030"></path><path d="M41.4429 28.975H38.2911V8.8458H41.4429V14.1018C41.8243 13.2705 42.3022 12.506 42.8762 11.805C43.4503 11.1039 44.1058 10.5015 44.8429 9.99422C45.5799 9.48694 46.3835 9.10648 47.2576 8.8458C48.1316 8.58511 49.0724 8.46886 50.0835 8.49704V11.7275H49.8391C48.6946 11.7275 47.6095 11.9212 46.5836 12.3122C45.5577 12.7033 44.6651 13.2845 43.9021 14.063C43.1392 14.8416 42.5355 15.8103 42.1021 16.9623C41.6651 18.1178 41.4466 19.4494 41.4466 20.9536V28.975H41.4429Z" fill="#303030"></path><path d="M69.6682 10.8682C70.146 10.375 70.683 9.94517 71.2867 9.58232C71.8867 9.21947 72.5608 8.93415 73.3126 8.72631C74.0644 8.51847 74.9015 8.41626 75.8311 8.41626C78.2866 8.41626 80.2125 9.13495 81.6014 10.5758C82.994 12.0166 83.6902 13.9963 83.6902 16.5151V28.9752H80.5384V17.2162C80.5384 15.2681 80.0533 13.771 79.0866 12.7176C78.1163 11.6679 76.7718 11.1394 75.0533 11.1394C74.2607 11.1394 73.5126 11.2768 72.8015 11.5481C72.0905 11.8193 71.4719 12.2244 70.9386 12.7563C70.4053 13.2883 69.983 13.9435 69.6682 14.7221C69.3534 15.5006 69.1978 16.3848 69.1978 17.3712V28.9752H66.0868V17.1387C66.0868 15.2434 65.6017 13.7709 64.635 12.7211C63.6647 11.6713 62.3351 11.1429 60.6425 11.1429C59.7981 11.1429 59.0203 11.2979 58.3092 11.6114C57.5981 11.9214 56.9796 12.3653 56.4462 12.936C55.9129 13.5067 55.4982 14.176 55.1982 14.9405C54.8982 15.7049 54.7463 16.5574 54.7463 17.4909V28.9788H51.5945V8.84955H54.7463V12.2385C55.1019 11.7453 55.4907 11.2662 55.9129 10.7977C56.3352 10.3291 56.8203 9.9205 57.3647 9.57174C57.9092 9.22299 58.524 8.94121 59.2054 8.73336C59.8869 8.52552 60.6795 8.42331 61.5795 8.42331C63.298 8.42331 64.7165 8.8073 65.8387 9.57174C66.9572 10.3362 67.8053 11.2909 68.3756 12.4323C68.7571 11.8862 69.1867 11.3683 69.6645 10.8752L69.6682 10.8682Z" fill="#303030"></path><path d="M91.4864 11.6289C90.4642 11.9002 89.4605 12.2595 88.479 12.6999L87.5383 10.248C88.7123 9.73018 89.8975 9.32146 91.1012 9.02202C92.3012 8.72258 93.6789 8.57471 95.2344 8.57471C98.127 8.57471 100.353 9.25453 101.908 10.6178C103.464 11.9812 104.242 13.9998 104.242 16.6736V28.9786H101.212V25.9419C100.475 26.8508 99.4862 27.654 98.2455 28.3551C97.0048 29.0561 95.4418 29.4048 93.5567 29.4048C92.5752 29.4048 91.6123 29.2745 90.6716 29.0138C89.7309 28.7531 88.8827 28.3586 88.1346 27.8267C87.3827 27.2947 86.7827 26.6394 86.3346 25.8609C85.8827 25.0824 85.6606 24.1595 85.6606 23.0956C85.6606 22.0317 85.8791 21.0911 86.3161 20.2738C86.7532 19.4566 87.3716 18.7731 88.179 18.2306C88.9827 17.6846 89.9383 17.2689 91.0457 16.9835C92.1494 16.6982 93.3715 16.5538 94.7085 16.5538C96.0455 16.5538 97.2603 16.6312 98.2714 16.7862C99.2825 16.9412 100.264 17.1491 101.22 17.4098V16.7087C101.22 14.891 100.668 13.5242 99.5603 12.6012C98.4566 11.6818 96.9048 11.2203 94.916 11.2203C93.6604 11.2203 92.5197 11.3577 91.4975 11.6289H91.4864ZM90.479 19.9039C89.4161 20.6578 88.8864 21.6829 88.8864 22.9793C88.8864 23.6275 89.0271 24.1982 89.316 24.6914C89.6012 25.1846 89.9901 25.6073 90.479 25.956C90.9679 26.3083 91.5308 26.5725 92.1715 26.7557C92.8122 26.9389 93.4827 27.027 94.1901 27.027C95.1678 27.027 96.0863 26.8896 96.9455 26.6184C97.8011 26.3471 98.5492 25.9702 99.19 25.4876C99.8307 25.0085 100.331 24.4377 100.701 23.7755C101.068 23.1132 101.253 22.3804 101.253 21.5772V19.6291C100.464 19.4213 99.5603 19.2276 98.5381 19.0444C97.5159 18.8647 96.3566 18.7731 95.0492 18.7731C93.0641 18.7731 91.542 19.1501 90.479 19.9039Z" fill="#303030"></path><path d="M111.686 28.0029C110.593 27.3794 109.653 26.615 108.86 25.7061C108.067 24.7972 107.456 23.765 107.019 22.6095C106.582 21.4541 106.364 20.2423 106.364 18.9706C106.364 17.5438 106.638 16.1876 107.182 14.9017C107.727 13.6159 108.486 12.4957 109.453 11.534C110.419 10.5758 111.567 9.81485 112.89 9.25473C114.212 8.69813 115.653 8.41626 117.208 8.41626C118.215 8.41626 119.134 8.50786 119.952 8.68752C120.771 8.8707 121.523 9.12088 122.204 9.4485C122.886 9.77259 123.515 10.1566 124.086 10.5969C124.66 11.0373 125.189 11.5058 125.682 11.999L123.593 14.1021C122.745 13.2707 121.827 12.5591 120.83 11.9602C119.834 11.3648 118.612 11.0654 117.167 11.0654C116.104 11.0654 115.108 11.2662 114.179 11.6678C113.249 12.0694 112.445 12.626 111.764 13.3376C111.082 14.0492 110.549 14.877 110.167 15.8247C109.786 16.7688 109.593 17.7869 109.593 18.8719C109.593 19.9569 109.79 20.9821 110.186 21.9402C110.582 22.8984 111.127 23.7333 111.823 24.4449C112.519 25.1565 113.338 25.7131 114.279 26.1147C115.219 26.5163 116.249 26.7172 117.367 26.7172C118.73 26.7172 119.941 26.4317 120.989 25.8611C122.041 25.2904 122.989 24.5753 123.834 23.7193L125.841 25.5088C124.804 26.6044 123.664 27.5063 122.423 28.2179C121.182 28.9295 119.645 29.3381 117.819 29.4438L115.119 35.0132L112.049 33.6887L115.241 29.25C113.96 29.0422 112.771 28.6265 111.679 28.0029H111.686Z" fill="#303030"></path><path d="M132.011 11.629C130.989 11.9003 129.986 12.2596 129.004 12.7L128.063 10.2481C129.237 9.73029 130.423 9.32156 131.626 9.02213C132.826 8.72269 134.204 8.57481 135.76 8.57481C138.652 8.57481 140.878 9.25464 142.434 10.618C143.989 11.9813 144.767 13.9999 144.767 16.6737V28.9787H141.737V25.942C141 26.8509 140.011 27.6541 138.771 28.3552C137.53 29.0562 135.967 29.405 134.082 29.405C133.1 29.405 132.137 29.2746 131.197 29.0139C130.256 28.7532 129.408 28.3587 128.66 27.8268C127.908 27.2948 127.308 26.6396 126.86 25.861C126.408 25.0825 126.186 24.1596 126.186 23.0957C126.186 22.0318 126.404 21.0912 126.841 20.2739C127.278 19.4567 127.897 18.7732 128.704 18.2307C129.508 17.6847 130.463 17.269 131.571 16.9836C132.674 16.6983 133.897 16.5539 135.234 16.5539C136.571 16.5539 137.785 16.6313 138.797 16.7863C139.808 16.9413 140.789 17.1492 141.745 17.4099V16.7089C141.745 14.8911 141.193 13.5243 140.085 12.6013C138.982 11.6819 137.43 11.2204 135.441 11.2204C134.186 11.2204 133.045 11.3578 132.023 11.629H132.011ZM131.004 19.904C129.941 20.6579 129.412 21.683 129.412 22.9794C129.412 23.6276 129.552 24.1983 129.841 24.6915C130.126 25.1847 130.515 25.6074 131.004 25.9561C131.493 26.3084 132.056 26.5726 132.697 26.7558C133.337 26.939 134.008 27.0271 134.715 27.0271C135.693 27.0271 136.611 26.8897 137.471 26.6185C138.326 26.3472 139.074 25.9703 139.715 25.4877C140.356 25.0086 140.856 24.4378 141.226 23.7756C141.593 23.1133 141.778 22.3805 141.778 21.5774V19.6292C140.989 19.4214 140.085 19.2277 139.063 19.0445C138.041 18.8648 136.882 18.7732 135.574 18.7732C133.589 18.7732 132.067 19.1502 131.004 19.904ZM141.408 4.8759C140.808 5.49943 140.015 5.8094 139.034 5.8094C138.571 5.8094 138.093 5.73546 137.6 5.58045C137.108 5.42545 136.619 5.25629 136.126 5.06606C135.634 4.87583 135.171 4.69968 134.734 4.53411C134.297 4.36854 133.9 4.28754 133.545 4.28754C132.997 4.28754 132.582 4.42843 132.297 4.70673C132.011 4.98503 131.715 5.47121 131.415 6.15462L129.489 5.64737C129.9 4.1678 130.404 3.11803 131.004 2.4945C131.604 1.87097 132.397 1.56091 133.378 1.56091C133.841 1.56091 134.319 1.64192 134.811 1.80749C135.304 1.97306 135.793 2.1492 136.285 2.33943C136.778 2.52966 137.241 2.69883 137.678 2.85383C138.115 3.00531 138.511 3.08277 138.867 3.08277C139.411 3.08277 139.83 2.94188 140.115 2.66358C140.4 2.38528 140.697 1.8991 140.996 1.21216L142.922 1.71942C142.511 3.19898 142.008 4.24884 141.408 4.87237V4.8759Z" fill="#303030"></path><path d="M168.118 22.9582C167.559 24.244 166.789 25.3642 165.803 26.326C164.822 27.2877 163.648 28.0451 162.285 28.6052C160.918 29.1618 159.444 29.4436 157.863 29.4436C156.281 29.4436 154.818 29.1653 153.481 28.6052C152.144 28.0486 150.985 27.2947 150 26.3471C149.019 25.3995 148.252 24.2898 147.708 23.0181C147.163 21.7464 146.889 20.3972 146.889 18.9669C146.889 17.5367 147.163 16.1839 147.708 14.8981C148.252 13.6123 149.019 12.492 150 11.5303C150.982 10.5721 152.148 9.81118 153.5 9.25106C154.852 8.69446 156.33 8.4126 157.941 8.4126C159.552 8.4126 160.989 8.69094 162.341 9.25106C163.692 9.80766 164.859 10.5615 165.841 11.5091C166.822 12.4568 167.585 13.5664 168.133 14.8381C168.677 16.1099 168.952 17.4591 168.952 18.8893C168.952 20.3196 168.67 21.6723 168.111 22.9582H168.118ZM165.129 15.8774C164.733 14.9192 164.181 14.0843 163.47 13.3727C162.759 12.6611 161.929 12.0974 160.974 11.6853C160.018 11.2696 158.981 11.0617 157.863 11.0617C156.744 11.0617 155.667 11.2625 154.711 11.6641C153.756 12.0657 152.944 12.6224 152.274 13.334C151.604 14.0456 151.082 14.8734 150.696 15.821C150.315 16.7651 150.122 17.7832 150.122 18.8683C150.122 19.9533 150.319 20.9784 150.715 21.9366C151.111 22.8948 151.656 23.7227 152.352 24.4237C153.048 25.1247 153.874 25.6778 154.83 26.0935C155.785 26.5092 156.822 26.7135 157.941 26.7135C159.059 26.7135 160.137 26.5126 161.092 26.111C162.048 25.7094 162.866 25.1599 163.548 24.4589C164.229 23.7614 164.763 22.937 165.144 21.9929C165.526 21.0488 165.718 20.0308 165.718 18.9458C165.718 17.8607 165.518 16.8356 165.126 15.8774H165.129Z" fill="#303030"></path><path d="M183.118 22.9196C183.555 23.765 184.114 24.4766 184.796 25.0614C185.477 25.6461 186.24 26.0865 187.088 26.3859C187.933 26.6854 188.822 26.8333 189.748 26.8333C191.222 26.8333 192.484 26.5726 193.533 26.0548C194.584 25.537 195.544 24.8465 196.418 23.9905L198.381 25.6638C197.318 26.8052 196.103 27.7211 194.736 28.408C193.37 29.0949 191.681 29.4402 189.659 29.4402C188.21 29.4402 186.848 29.1865 185.566 28.6793C184.285 28.172 183.162 27.4604 182.199 26.5375C181.237 25.6145 180.474 24.5083 179.907 23.2084C179.34 21.912 179.059 20.4818 179.059 18.9247C179.059 17.4698 179.311 16.103 179.814 14.8172C180.318 13.5314 181.022 12.4182 181.922 11.467C182.822 10.5194 183.892 9.77252 185.136 9.22649C186.377 8.68046 187.736 8.40918 189.21 8.40918C190.766 8.40918 192.159 8.68752 193.384 9.24765C194.614 9.80424 195.651 10.5652 196.496 11.5269C197.34 12.4886 197.984 13.6159 198.418 14.9158C198.855 16.2157 199.073 17.6036 199.073 19.0832V19.5095C199.073 19.6645 199.058 19.8336 199.032 20.0168H182.288C182.396 21.1053 182.67 22.0741 183.107 22.916L183.118 22.9196ZM195.847 17.7974C195.766 16.8886 195.57 16.0184 195.258 15.1905C194.947 14.3591 194.514 13.6335 193.958 13.0099C193.403 12.3864 192.725 11.8862 191.925 11.5128C191.125 11.1358 190.196 10.9492 189.136 10.9492C188.214 10.9492 187.359 11.1253 186.573 11.4741C185.788 11.8263 185.096 12.3054 184.499 12.9148C183.903 13.5243 183.414 14.2465 183.033 15.0743C182.651 15.9057 182.407 16.8146 182.299 17.801H195.847V17.7974Z" fill="#303030"></path><path d="M219.41 10.8682C219.888 10.375 220.425 9.94517 221.028 9.58232C221.628 9.21947 222.302 8.93415 223.054 8.72631C223.806 8.51847 224.643 8.41626 225.573 8.41626C228.028 8.41626 229.954 9.13495 231.343 10.5758C232.735 12.0166 233.432 13.9963 233.432 16.5151V28.9752H230.28V17.2162C230.28 15.2681 229.795 13.771 228.828 12.7176C227.858 11.6679 226.513 11.1394 224.795 11.1394C224.002 11.1394 223.254 11.2768 222.543 11.5481C221.832 11.8193 221.213 12.2244 220.68 12.7563C220.147 13.2883 219.725 13.9435 219.41 14.7221C219.095 15.5006 218.939 16.3848 218.939 17.3712V28.9752H215.828V17.1387C215.828 15.2434 215.343 13.7709 214.377 12.7211C213.406 11.6713 212.077 11.1429 210.384 11.1429C209.536 11.1429 208.762 11.2979 208.051 11.6114C207.34 11.9214 206.721 12.3653 206.188 12.936C205.655 13.5067 205.24 14.176 204.94 14.9405C204.64 15.7049 204.488 16.5574 204.488 17.4909V28.9788H201.336V8.84955H204.488V12.2385C204.843 11.7453 205.232 11.2662 205.655 10.7977C206.077 10.3291 206.562 9.9205 207.106 9.57174C207.651 9.22299 208.266 8.94121 208.947 8.73336C209.629 8.52552 210.421 8.42331 211.321 8.42331C213.04 8.42331 214.458 8.8073 215.58 9.57174C216.699 10.3362 217.547 11.2909 218.117 12.4323C218.499 11.8862 218.928 11.3683 219.406 10.8752L219.41 10.8682Z" fill="#303030"></path><path d="M31.2209 118.225C29.1358 118.806 26.7247 119.095 23.9951 119.095C21.4766 119.095 19.1952 118.838 17.1434 118.327C15.0916 117.816 13.3323 116.907 11.8583 115.607C10.3843 114.307 9.2324 112.616 8.40649 110.527C7.58058 108.442 7.16574 105.793 7.16574 102.576V76.5149H0.262207V63.1778H7.16574V49.1218H23.5617V63.1778H37.1541V76.5149H23.5617V100.012C23.5617 103.57 25.3247 105.345 28.8468 105.345C31.7208 105.345 34.4171 104.697 36.9356 103.397V115.914C35.2097 116.872 33.3023 117.643 31.2172 118.221L31.2209 118.225Z" fill="#303030"></path><path d="M94.4863 94.1641C94.4493 94.7136 94.3937 95.3618 94.3234 96.1122H54.0871C54.876 99.6702 56.513 102.354 58.9944 104.165C61.4759 105.979 64.5499 106.885 68.2164 106.885C70.9497 106.885 73.3941 106.441 75.5497 105.55C77.7089 104.662 79.9348 103.225 82.2384 101.241L91.6234 109.143C88.8901 112.359 85.5827 114.874 81.6976 116.685C77.8125 118.496 73.2459 119.405 67.9979 119.405C63.6832 119.405 59.6721 118.721 55.9685 117.351C52.2649 115.984 49.065 114.033 46.3687 111.503C43.6725 108.974 41.5688 105.979 40.0577 102.524C38.5466 99.0713 37.7911 95.2244 37.7911 90.9795V90.7751C37.7911 86.8754 38.4911 83.1836 39.8948 79.6925C41.2985 76.2049 43.2539 73.1613 45.7724 70.5615C48.2872 67.9617 51.2908 65.9114 54.7797 64.4037C58.2685 62.8994 62.1314 62.1455 66.3758 62.1455C71.1942 62.1455 75.3645 62.9663 78.8903 64.6079C82.4125 66.2495 85.3458 68.4548 87.6828 71.2272C90.0198 73.9961 91.7456 77.1772 92.8604 80.7705C93.9752 84.3602 94.5308 88.1049 94.5308 92.0046V92.2089C94.5308 92.9628 94.5122 93.611 94.4752 94.1605L94.4863 94.1641ZM74.6904 77.8994C72.6052 75.7434 69.835 74.669 66.3832 74.669C62.9314 74.669 60.1425 75.7294 58.024 77.8501C55.9019 79.9708 54.5204 82.8101 53.8723 86.3646H78.5755C78.0718 82.8771 76.7755 80.0553 74.6904 77.8994Z" fill="#303030"></path><path d="M139.415 116.583C135.819 118.464 131.145 119.405 125.393 119.405C121.078 119.405 117.067 118.651 113.364 117.147C109.66 115.643 106.475 113.606 103.816 111.042C101.153 108.477 99.0714 105.469 97.5603 102.013C96.0493 98.5606 95.2938 94.8829 95.2938 90.9831V90.7788C95.2938 86.8791 96.0493 83.1872 97.5603 79.6961C99.0714 76.2051 101.157 73.1649 103.816 70.5651C106.475 67.9653 109.656 65.9151 113.364 64.4073C117.067 62.9031 121.149 62.1492 125.608 62.1492C131.071 62.1492 135.604 62.97 139.2 64.6116C142.796 66.2532 145.959 68.5113 148.693 71.3824L138.66 81.6407C136.789 79.7948 134.867 78.3223 132.889 77.2302C130.912 76.1381 128.449 75.5886 125.501 75.5886C123.415 75.5886 121.527 75.9831 119.838 76.7687C118.149 77.5543 116.671 78.6323 115.416 79.9991C114.156 81.3695 113.186 82.9582 112.505 84.7689C111.819 86.5831 111.479 88.5137 111.479 90.5675V90.7717C111.479 92.8924 111.819 94.8758 112.505 96.7218C113.186 98.5677 114.175 100.178 115.471 101.544C116.767 102.915 118.312 103.989 120.108 104.775C121.904 105.56 123.919 105.955 126.149 105.955C128.882 105.955 131.271 105.427 133.323 104.366C135.371 103.306 137.404 101.886 139.419 100.107L149.019 109.34C146.215 112.282 143.015 114.695 139.419 116.576L139.415 116.583Z" fill="#303030"></path><path d="M187.633 118.175V87.573C187.633 83.8882 186.77 81.1086 185.044 79.231C183.318 77.3569 180.874 76.4163 177.707 76.4163C174.54 76.4163 172.044 77.3569 170.211 79.231C168.378 81.1086 167.459 83.8882 167.459 87.573V118.175H151.063V63.1778H167.459V71.0405C168.392 69.871 169.418 68.7507 170.533 67.6833C171.648 66.6159 172.889 65.6684 174.255 64.844C175.622 64.0162 177.129 63.3609 178.785 62.8783C180.437 62.3957 182.307 62.1526 184.396 62.1526C190.651 62.1526 195.488 63.9668 198.903 67.5917C202.318 71.2167 204.029 76.212 204.029 82.5706V118.175H187.633Z" fill="#303030"></path><path d="M267.027 101.911C265.446 105.367 263.253 108.393 260.446 110.992C257.642 113.592 254.331 115.646 250.52 117.15C246.709 118.654 242.539 119.408 238.006 119.408C233.473 119.408 229.41 118.672 225.602 117.203C221.791 115.734 218.499 113.716 215.732 111.147C212.962 108.583 210.788 105.574 209.206 102.118C207.625 98.6662 206.832 94.9532 206.832 90.9866V90.7822C206.832 86.8156 207.621 83.1061 209.206 79.6503C210.788 76.198 212.98 73.1719 215.788 70.5686C218.591 67.9687 221.899 65.9185 225.713 64.4107C229.524 62.9065 233.695 62.1526 238.228 62.1526C242.761 62.1526 246.82 62.8889 250.635 64.3578C254.446 65.8304 257.735 67.8454 260.505 70.41C263.272 72.9745 265.45 75.9866 267.031 79.4389C268.613 82.8947 269.405 86.6042 269.405 90.5709V90.7752C269.405 94.7418 268.613 98.4548 267.031 101.907L267.027 101.911ZM253.22 90.7787C253.22 88.7284 252.861 86.7944 252.143 84.9802C251.424 83.1695 250.38 81.5596 249.013 80.1575C247.646 78.7555 246.028 77.6423 244.158 76.8215C242.287 76.0007 240.239 75.592 238.009 75.592C235.635 75.592 233.532 75.9865 231.698 76.7721C229.865 77.5577 228.302 78.6357 227.006 80.0026C225.71 81.3729 224.721 82.9616 224.039 84.7723C223.354 86.5866 223.013 88.5171 223.013 90.5709V90.7752C223.013 92.8289 223.373 94.7594 224.091 96.5736C224.81 98.3879 225.854 99.9943 227.221 101.396C228.587 102.798 230.187 103.912 232.021 104.732C233.854 105.553 235.921 105.962 238.224 105.962C240.528 105.962 242.702 105.567 244.535 104.782C246.369 103.996 247.932 102.918 249.228 101.551C250.524 100.185 251.509 98.5922 252.194 96.7815C252.876 94.9708 253.22 93.0368 253.22 90.983V90.7787Z" fill="#303030"></path><path d="M273.39 118.175V43.2742H289.786V118.175H273.39Z" fill="#303030"></path><path d="M353.97 101.911C352.389 105.367 350.196 108.393 347.389 110.992C344.585 113.592 341.274 115.646 337.463 117.15C333.652 118.654 329.482 119.408 324.949 119.408C320.415 119.408 316.352 118.672 312.541 117.203C308.73 115.734 305.438 113.716 302.671 111.147C299.901 108.583 297.727 105.574 296.145 102.118C294.564 98.6662 293.771 94.9532 293.771 90.9866V90.7822C293.771 86.8156 294.56 83.1061 296.145 79.6503C297.727 76.198 299.923 73.1719 302.727 70.5686C305.53 67.9687 308.838 65.9185 312.653 64.4107C316.464 62.9065 320.634 62.1526 325.167 62.1526C329.7 62.1526 333.76 62.8889 337.574 64.3578C341.385 65.8304 344.674 67.8454 347.444 70.41C350.211 72.9745 352.389 75.9866 353.97 79.4389C355.552 82.8947 356.344 86.6042 356.344 90.5709V90.7752C356.344 94.7418 355.552 98.4548 353.97 101.907V101.911ZM340.163 90.7787C340.163 88.7284 339.804 86.7944 339.085 84.9802C338.367 83.1695 337.322 81.5596 335.956 80.1575C334.589 78.7555 332.971 77.6423 331.1 76.8215C329.23 76.0007 327.182 75.592 324.952 75.592C322.578 75.592 320.475 75.9865 318.641 76.7721C316.808 77.5577 315.245 78.6357 313.949 80.0026C312.656 81.3729 311.664 82.9616 310.982 84.7723C310.297 86.5866 309.956 88.5171 309.956 90.5709V90.7752C309.956 92.8289 310.316 94.7594 311.034 96.5736C311.753 98.3879 312.797 99.9943 314.164 101.396C315.53 102.798 317.13 103.912 318.964 104.732C320.797 105.553 322.863 105.962 325.167 105.962C327.471 105.962 329.645 105.567 331.478 104.782C333.311 103.996 334.878 102.918 336.171 101.551C337.467 100.185 338.452 98.5922 339.137 96.7815C339.819 94.9708 340.163 93.0368 340.163 90.983V90.7787Z" fill="#303030"></path><path d="M415.725 119.045C414.395 122.702 412.38 125.696 409.684 128.021C406.988 130.346 403.625 132.059 399.599 133.151C395.569 134.243 390.862 134.792 385.466 134.792C380.722 134.792 376.188 134.296 371.874 133.306C367.559 132.312 363.566 130.896 359.9 129.047L365.511 117.347C368.529 118.919 371.57 120.152 374.625 121.043C377.681 121.931 381.151 122.378 385.036 122.378C390.644 122.378 394.799 121.113 397.495 118.58C400.192 116.048 401.54 112.32 401.54 107.396V104.729C399.095 107.533 396.432 109.724 393.558 111.295C390.681 112.87 387.047 113.656 382.662 113.656C379.281 113.656 376.044 113.092 372.955 111.961C369.863 110.834 367.129 109.175 364.755 106.983C362.381 104.796 360.496 102.111 359.092 98.9304C357.689 95.7493 356.989 92.1068 356.989 88.0027V87.7984C356.989 83.6944 357.707 80.0518 359.144 76.8707C360.581 73.6897 362.489 71.0054 364.863 68.8142C367.237 66.6265 369.97 64.9673 373.062 63.84C376.155 62.7127 379.355 62.1455 382.662 62.1455C387.121 62.1455 390.788 62.9311 393.666 64.5058C396.54 66.0804 399.095 68.0286 401.325 70.3536V63.1707H417.721V105.75C417.721 110.95 417.054 115.378 415.725 119.038V119.045ZM401.54 87.8019C401.54 85.956 401.18 84.2474 400.462 82.6727C399.743 81.1016 398.751 79.7488 397.495 78.6215C396.236 77.4943 394.743 76.6206 393.018 76.0041C391.292 75.3877 389.421 75.0811 387.407 75.0811C385.392 75.0811 383.54 75.3912 381.851 76.0041C380.159 76.6206 378.685 77.4907 377.429 78.6215C376.17 79.7488 375.181 81.1016 374.462 82.6727C373.744 84.2474 373.385 85.956 373.385 87.8019V88.0063C373.385 91.8391 374.714 94.9179 377.377 97.2395C380.036 99.5645 383.381 100.727 387.41 100.727C389.421 100.727 391.295 100.417 393.021 99.804C394.747 99.1876 396.24 98.3174 397.499 97.1866C398.755 96.0557 399.747 94.7065 400.466 93.1318C401.184 91.5607 401.543 89.8487 401.543 88.0027V87.7984L401.54 87.8019Z" fill="#303030"></path><path d="M424.084 57.1257V43.2742H441.343V57.1257H424.084ZM424.513 118.175V63.1779H440.909V118.175H424.513Z" fill="#303030"></path><path d="M481.579 118.175V112.225C479.564 114.346 477.157 116.041 474.353 117.305C471.55 118.57 468.131 119.204 464.105 119.204C461.372 119.204 458.802 118.845 456.391 118.126C453.979 117.408 451.876 116.329 450.08 114.892C448.28 113.455 446.861 111.697 445.82 109.608C444.776 107.523 444.257 105.109 444.257 102.376V102.171C444.257 99.163 444.831 96.5632 445.983 94.372C447.131 92.1844 448.735 90.3701 450.783 88.9329C452.831 87.4956 455.276 86.4211 458.12 85.7025C460.961 84.9838 464.109 84.6245 467.561 84.6245C470.509 84.6245 473.079 84.8288 475.272 85.241C477.464 85.6496 479.605 86.1992 481.69 86.8826V85.9597C481.69 82.6764 480.646 80.1788 478.56 78.4702C476.475 76.7617 473.383 75.9056 469.283 75.9056C466.116 75.9056 463.331 76.1628 460.924 76.6771C458.513 77.1914 455.979 77.9242 453.32 78.8824L449.22 66.9789C452.383 65.679 455.694 64.6187 459.146 63.7979C462.598 62.9771 466.768 62.5684 471.661 62.5684C480.649 62.5684 487.194 64.6539 491.294 68.8283C495.394 73.0028 497.442 78.8154 497.442 86.2731V118.182H481.583L481.579 118.175ZM481.901 96.0137C480.464 95.3972 478.86 94.904 477.101 94.5271C475.338 94.1501 473.449 93.9634 471.438 93.9634C467.913 93.9634 465.146 94.6151 463.131 95.915C461.116 97.2149 460.109 99.0961 460.109 101.559V101.763C460.109 103.883 460.935 105.525 462.59 106.688C464.242 107.85 466.401 108.431 469.061 108.431C472.946 108.431 476.053 107.544 478.394 105.765C480.731 103.986 481.897 101.661 481.897 98.786V96.0172L481.901 96.0137Z" fill="#303030"></path></svg>